<svg xmlns="http://www.w3.org/2000/svg" xmlns:xlink="http://www.w3.org/1999/xlink" width="100%" viewBox="0 0 283.592 211.363">
  <defs>
    <style>
      .cls-1 {
        fill: #ff637d;
      }

      .cls-1, .cls-16, .cls-2, .cls-7 {
        opacity: 0.1;
      }

      .cls-10, .cls-2 {
        fill: #6c63ff;
      }

      .cls-3 {
        fill: #65617d;
      }

      .cls-4 {
        fill: url(#linear-gradient);
      }

      .cls-5 {
        fill: #ee8e9e;
      }

      .cls-6 {
        fill: #dfe5ee;
      }

      .cls-8 {
        fill: #d48a9b;
      }

      .cls-9 {
        fill: #efc6cd;
      }

      .cls-11, .cls-16 {
        fill: #fff;
      }

      .cls-12 {
        fill: #ffd037;
      }

      .cls-13 {
        fill: #9d9cb5;
      }

      .cls-14 {
        fill: #603556;
      }

      .cls-15 {
        fill: #5c5c8e;
      }

      .cls-17 {
        fill: #efc8c4;
      }

      .cls-18 {
        fill: #727a9c;
      }
    </style>
    <linearGradient id="linear-gradient" x1="0.5" y1="1" x2="0.5" gradientUnits="objectBoundingBox">
      <stop offset="0" stop-color="gray" stop-opacity="0.251"/>
      <stop offset="0.54" stop-color="gray" stop-opacity="0.122"/>
      <stop offset="1" stop-color="gray" stop-opacity="0.102"/>
    </linearGradient>
  </defs>
  <g id="Group_15" data-name="Group 15" transform="translate(-0.012 -0.057)">
    <path id="Path_123" data-name="Path 123" class="cls-1" d="M349.4,192.509c-.051.3-.1.6-.158.9a110.394,110.394,0,0,1-9.187,29.1q-.217.45-.442.9a83.159,83.159,0,0,1-10.352,15.964,33.127,33.127,0,0,1-7.436,6.978c-3.99,2.544-8.654,3.577-13.238,4.423-4.764.881-9.589,1.607-14.4,2.41q-2.56.418-5.088.876c-4.651.841-9.267,1.813-13.774,3.1a71.6,71.6,0,0,0-16.066,6.608q-.61.348-1.208.715c-.4.241-.8.487-1.192.739s-.779.5-1.165.755l-.594.4c-.2.128-.388.268-.581.4-.573.391-1.138.8-1.7,1.2l-.021.016q-.558.4-1.111.8c-2.086,1.545-4.126,3.162-6.159,4.785l-1.283,1.026-1.987,1.572c-.388.308-.782.613-1.173.918-.284.222-.565.444-.854.664-1.449,1.117-2.916,2.209-4.413,3.253-.356.249-.718.5-1.071.742A56.47,56.47,0,0,1,225.225,287l-.043.019a37.755,37.755,0,0,1-5.055,1.743,30.262,30.262,0,0,1-2.978.645,26.316,26.316,0,0,1-8.073.139c-5.272-.747-10.213-3.213-15.471-4.038-10.85-1.684-21.386,3.749-31.6,8.014q-3.749,1.569-7.58,2.945-2.538.916-5.1,1.743a160.6,160.6,0,0,1-32.006,6.847,73.962,73.962,0,0,1-13.589.367,45.907,45.907,0,0,1-5.088-.661,29.364,29.364,0,0,1-15.367-7.5,36,36,0,0,1-8.02-12.475q-1.159-2.793-2.043-5.714a63.725,63.725,0,0,1-2.081-9.326c-.1-.712-.2-1.427-.268-2.142q-.209-1.84-.311-3.7a64,64,0,0,1,1.9-19.547c1.823-7.066,4.865-13.833,6.2-20.966.056-.3.107-.6.158-.9q.268-1.607.407-3.272c.675-8.724-1.936-17.263-4-25.815-.072-.3-.145-.6-.214-.9q-.335-1.422-.635-2.846a71.987,71.987,0,0,1-.736-27.751c.054-.3.115-.6.177-.9a44.888,44.888,0,0,1,6.255-15.645A54.219,54.219,0,0,1,91.859,132.9q3.253-2.6,6.729-4.86,2.5-1.623,5.088-3.071a84.8,84.8,0,0,1,45.595-10.711q1.25.064,2.5.171,1.307.112,2.605.268c10.13,1.17,19.986,4.07,29.783,7.243q4.924,1.607,9.832,3.213,2.185.712,4.367,1.406c7.136,2.252,14.39,4.284,21.71,5.816q2.546.536,5.088.977a120.252,120.252,0,0,0,17.83,1.837q3.481.086,6.962-.072,1.759-.08,3.521-.236c12.132-1.039,23.831-4.523,35.578-7.795,1.7-.474,3.4-.945,5.088-1.4,2.233-.6,4.469-1.181,6.713-1.716,13.972-3.355,26.423-1.427,39.412,5.492,2.945,1.572,5.891,3.468,7.712,6.4s2.263,6.568,2.6,10.065c.477,4.975.8,10.02.908,15.086,0,.3,0,.6.019.9A160.506,160.506,0,0,1,349.4,192.509Z" transform="translate(-70.44 -98.343)"/>
    <path id="Path_124" data-name="Path 124" class="cls-2" d="M265.432,222.8h-.913v.9h1.034Zm-10.349,0a.058.058,0,0,0,0,.021l-.08.744v.134h7.926v-.054l.565-.846Zm-21.194,0V193.7h9.1c-.1-.08-.2-.161-.3-.236l-.134-.1c-.056-.046-.112-.088-.171-.129s-.2-.142-.3-.212-.169-.115-.268-.171l-.062-.04h-7.87v-1.593l-.212.1-.225.126h-.016l-.048.029-.139.091c-.048.029-.1.059-.142.091-.139.094-.268.2-.415.3l-.134.107c-.091.07-.177.142-.268.214-.356.292-.707.6-1.071.878-.091.072-.182.142-.268.209a6.913,6.913,0,0,1-.605.4,2.876,2.876,0,0,1-.268.147l-.15.07-.137.059h0a5.686,5.686,0,0,1-1,.316V222.8H215.14a.412.412,0,0,0,.027.094c.075.268.15.536.222.8H228.8v31.192h.209l.238.016.434.032.7.07.316.038.348.043h.051c.2.027.4.059.611.091l.131.021.295.048.423.075h0l1.015-.054h0l.139.029a.811.811,0,0,1,.171.035V223.7h21.1v-.134l.08-.744a.059.059,0,0,1,0-.021Zm31.543,0h-.913v.9h1.034Zm-10.919,0-.091.9h8.817l.6-.9Zm-20.618,0V193.7H243c-.1-.08-.2-.161-.3-.236l-.134-.1c-.056-.046-.112-.088-.171-.129s-.2-.142-.3-.212-.169-.115-.268-.171l-.062-.04h-7.875v-1.593l-.212.1-.225.126h-.016l-.048.029-.139.091c-.048.029-.1.059-.142.091-.139.094-.268.2-.415.3l-.134.107c-.091.07-.177.142-.268.214-.356.292-.707.6-1.071.878-.091.072-.182.142-.268.209a6.913,6.913,0,0,1-.605.4,2.876,2.876,0,0,1-.268.147l-.15.07-.137.059h0a5.686,5.686,0,0,1-1,.316V222.8H215.14a.412.412,0,0,0,.027.094c.075.268.153.536.225.8H228.8v31.189l.209.013.238.016.434.032.7.07.316.037.348.043h.051c.2.027.4.059.611.091l.131.021.295.048.423.075h0l1.015-.054h0l.139.029a.813.813,0,0,1,.171.035V223.7h20.54l.1-.9Zm68.992-60.6H360.25c0-.3,0-.6-.019-.9H302.887V125.974c-1.7.455-3.4.926-5.088,1.4V161.3H235.41l-.158-.171.238-.268h0l23.2-25.467q-3.481.161-6.962.072l-17.844,19.574v-21.4q-2.554-.442-5.088-.977v21.394l-26.088-28.616c-3.275-1.071-6.55-2.161-9.832-3.213l35.46,38.9-.158.171H163.1V114.979q-1.3-.147-2.605-.268-1.245-.11-2.5-.171V161.3H112.4V125.261q-2.595,1.446-5.088,3.071V161.3h-24.8c-.062.3-.123.6-.177.9h24.953v30.6H83.722c.07.3.142.6.214.9H107.3v29.1H87.519c-.051.3-.1.6-.158.9H107.3v81.36a45.9,45.9,0,0,0,5.088.661V223.7H158V298.5q2.565-.833,5.1-1.743V223.7h65.693v65.361a37.753,37.753,0,0,0,5.055-1.743l.043-.019V223.7h63.894v30.651q2.541-.458,5.088-.876V223.7H348.3q.225-.45.442-.9H302.887V193.7h55.06c.056-.3.107-.6.158-.9H302.887Zm-190.482,0H158v30.6H112.4Zm0,60.6V193.7H158v29.1Zm50.7-60.6h65.691v30.6H163.1Zm0,60.6V193.7h65.691v29.1Zm134.685,0h-63.9V193.7h63.894Zm0-29.99h-63.9V163.021l.9-.819h63Zm-42.7,29.99a.059.059,0,0,0,0,.021l-.08.744v.134h7.926v-.054l.565-.846Zm10.349,0h-.913v.9h1.034Zm-31.543,0V193.7H243c-.1-.08-.2-.161-.3-.236l-.134-.1c-.056-.046-.112-.088-.171-.129s-.2-.142-.3-.212-.169-.115-.268-.171l-.062-.04h-7.872v-1.593l-.212.1-.225.126h-.016l-.048.029-.139.091c-.048.029-.1.059-.142.091-.139.094-.268.2-.415.3l-.134.107c-.091.07-.177.142-.268.214-.356.292-.707.6-1.071.878-.091.072-.182.142-.268.209a6.913,6.913,0,0,1-.605.4,2.876,2.876,0,0,1-.268.147l-.15.07-.137.059h0a5.686,5.686,0,0,1-1,.316V222.8H215.14a.412.412,0,0,0,.027.094c.075.268.15.536.222.8H228.8v31.192h.209l.238.016.434.032.7.07.316.038.348.043h.051c.2.027.4.059.611.091l.131.021.295.048.423.075h0l1.015-.054h0l.139.029a.811.811,0,0,1,.171.035V223.7h21.1v-.134l.08-.744a.059.059,0,0,1,0-.021Z" transform="translate(-79.145 -98.633)"/>
    <path id="Path_125" data-name="Path 125" class="cls-2" d="M271.867,208.632h.407a.975.975,0,0,1-.485-.785h0c0-.621.76-1.127,1.69-1.127H285.3c.929,0,1.69.506,1.69,1.127h0c0,.619-.76,1.127-1.69,1.127h-.394a.977.977,0,0,1,.482.785c0,.536-.552.975-1.291,1.1h3.4c.926,0,1.687.506,1.687,1.127s-.76,1.125-1.687,1.125H275.667c-.926,0-1.687-.506-1.687-1.125,0-.536.552-.975,1.291-1.1h-3.4c-.926,0-1.687-.506-1.687-1.127S270.935,208.632,271.867,208.632Z" transform="translate(-216.688 -166.131)"/>
    <path id="Path_126" data-name="Path 126" class="cls-2" d="M750.387,248.7h.4a.978.978,0,0,1-.485-.787h0c0-.619.76-1.125,1.69-1.125H763.81c.929,0,1.69.506,1.69,1.125h0c0,.621-.76,1.127-1.69,1.127h-.394a.98.98,0,0,1,.482.787c0,.536-.552.972-1.291,1.092h3.4c.926,0,1.687.509,1.687,1.127s-.76,1.127-1.687,1.127H754.192c-.927,0-1.687-.506-1.687-1.127,0-.536.552-.975,1.291-1.092h-3.409c-.926,0-1.687-.509-1.687-1.127S749.466,248.7,750.387,248.7Z" transform="translate(-567.077 -195.472)"/>
    <path id="Path_127" data-name="Path 127" class="cls-2" d="M204.137,420.165h.4a.98.98,0,0,1-.482-.787h0c0-.619.758-1.127,1.687-1.127H217.56c.929,0,1.69.509,1.69,1.127h0c0,.621-.76,1.127-1.69,1.127h-.394a.98.98,0,0,1,.482.787c0,.536-.552.972-1.291,1.092h3.4c.929,0,1.687.506,1.687,1.127s-.758,1.127-1.687,1.127H207.936c-.926,0-1.687-.509-1.687-1.127,0-.536.554-.975,1.291-1.1h-3.4c-.926,0-1.687-.506-1.687-1.125S203.21,420.165,204.137,420.165Z" transform="translate(-167.093 -321.021)"/>
    <path id="Path_128" data-name="Path 128" class="cls-3" d="M667.247,713.44l-1.987,1.572c-.388.308-.782.613-1.173.918-.284.222-.565.444-.854.664-1.449,1.117-2.916,2.209-4.413,3.253-.356.249-.718.5-1.071.742a56.46,56.46,0,0,1-9.516,5.243l-.043.019V713.44Z" transform="translate(-493.48 -537.169)"/>
    <path id="Path_129" data-name="Path 129" class="cls-4" d="M496.231,352.846l.3-9.251c-.179-.139-.361-.268-.536-.4a49.313,49.313,0,0,0-.471-8.25c-1.21-9.251-9.069-9.452-11.286-7.543a5.356,5.356,0,0,1-.956.659c.2-1.32.45-2.643.629-3.95.969-7.048-.536-14.976-6-19.531-2.289-1.9-5.088-3.074-7.6-4.667-4.5-2.841-8.062-7.037-12.617-9.8s-10.952-3.8-14.925-.246c-1.54,1.376-2.533,3.285-4.113,4.614-2.945,2.474-7.538,2.637-10.108,5.4h0c-.129.139-.252.281-.37.431-2.142,2.747-1.556,6.643-.873,10.052.822,4.1.482,7.39,4,8.568.013.163.024.327.043.487a17.381,17.381,0,0,0,7.647,12.51l-.57.2c-1.521.536-2.889,1.055-3.765,1.411-3.213,1.309-9.977,3.015-9.977,3.015s-.161,1.928-.131,4.772c-2.255,2.45-6.017,6.756-7.122,9.307-1.607,3.722-10.684,14.382-13.1,15.991s-5.039,3.518-5.039,3.518-3.829,2.113-5.642,2.313a30.39,30.39,0,0,1-5.141-.605s-15.517-19.011-14.51-4.423,13.4,15.083,13.4,15.083l12.5-.2s6.753.905,9.776-1.607c2.581-2.142,15.959-13.894,20.256-19.225.1.11.2.217.3.321,0,0,1.711-2.212,1.915,0s-1.111,3.213-.4,4.016,2.822,3.62,2.921,4.726-2.82,5.623,2.115,9.05c.078.054.161.1.252.155.881,2.006,3.682,3.968,3.682,3.968l15.115-.2,28.52,2.212s.849-.747,2-1.968c1.534,1.408,3.663,2.616,6.062,1.874,0,0,3.427-4.121,3.529-6.836,0,0-2.217-5.733-3.213-7.441s.707-5.43.707-5.43,1.208-3.62,1.915-3.62.2-2.41.2-2.41a2.929,2.929,0,0,1-.3-2.715A25.989,25.989,0,0,0,496.231,352.846Z" transform="translate(-292.668 -225.352)"/>
    <path id="Path_130" data-name="Path 130" class="cls-5" d="M682.8,452.114l-1.071,1.253h0l-4.327,5.039-5.652.343-9.048.557s-12.2-14.7-9.907-17.9a5.857,5.857,0,0,0,.8-4.116c-.021-.2-.051-.4-.086-.592a17.1,17.1,0,0,0-1.424-4.391l.3-.137.193-.088,10.668-4.868,2.64-1.2a7.127,7.127,0,0,0,.723,2.083c.051.1.107.2.166.3,3.639,6.025,15.308,2.214,15.308,2.214Z" transform="translate(-496.336 -326.703)"/>
    <path id="Path_131" data-name="Path 131" class="cls-5" d="M774.9,451.289a17.592,17.592,0,0,1-.675,5.221l-15.1,2.3-.565-3.92-2.236-15.479,2.1-2.1a5.6,5.6,0,0,0,4.8-1.2c2.2-1.9,10-1.7,11.2,7.5a50.923,50.923,0,0,1,.477,7.68Z" transform="translate(-572.664 -333.399)"/>
    <path id="Path_132" data-name="Path 132" class="cls-6" d="M789.1,611.972s3.4-4.1,3.5-6.8l-3.4-5.7-3-3.213-5.6,10.812S784.3,613.472,789.1,611.972Z" transform="translate(-590.435 -451.366)"/>
    <path id="Path_133" data-name="Path 133" class="cls-7" d="M789.1,611.972s3.4-4.1,3.5-6.8l-3.4-5.7-3-3.213-5.6,10.812S784.3,613.472,789.1,611.972Z" transform="translate(-590.435 -451.366)"/>
    <path id="Path_134" data-name="Path 134" class="cls-8" d="M242.18,696.76c-.284.222-.565.445-.854.664-1.449,1.117-2.916,2.209-4.413,3.253-.356.249-.718.5-1.071.742H150.425l-25.272-.905-20.323-.171-5.088-.268-25.384-1.339a63.729,63.729,0,0,1-2.091-9.334c-.1-.712-.2-1.427-.268-2.142L99.732,688.8l5.088.286,45.595,2.544,5.1.284,65.693,3.668,5.055.284h.043Z" transform="translate(-71.573 -518)"/>
    <path id="Path_135" data-name="Path 135" class="cls-9" d="M275.589,630.222a71.6,71.6,0,0,0-16.066,6.608c-.4.233-.8.471-1.208.715s-.8.487-1.192.739-.779.5-1.165.755l-.594.4-.581.4c-.573.394-1.138.8-1.7,1.2l-.021.016q-.558.4-1.111.8c-2.086,1.545-4.126,3.162-6.159,4.785q-.643.514-1.288,1.026l-1.981,1.572c-.388.308-.782.613-1.173.918-.284.222-.565.445-.854.664l-14.995-.715h-.043l-5.055-.236-65.723-3.114-5.1-.244-45.595-2.166-5.088-.244L71.418,642.81c-.1-.712-.2-1.427-.268-2.142q-.209-1.839-.311-3.7l28.051-9.907,5.088-1.8,4.622-1.633,8.421.439,19.464,1h0l13.1.688,5.1.268,3.259.171h0l.779.043h0l27.424,1.432h0l.289.019h0l12.237.637h.22l1.224.062h0l4.172.22,5.216.268h0l1.719.091h0l.324.019,2.431.126h0l.694.035h0l2.322.123h0l.924.051h.222l2.172.115,3.363.177h.016l1.044.054h.112l.624.035,1.532.08h0l1.339.07h.013l1.5.078h.024l1.138.062h0l.873.045,3.1.163h0l.557.029h.193l.268.016h0l.908.048h0l.407.021h0l3.16.163h.289l4.664-.04h.032l17.734-.145h1.754l5.709-.046h.851Z" transform="translate(-70.724 -471.407)"/>
    <path id="Path_136" data-name="Path 136" class="cls-10" d="M387.316,641.419l1.649,8.775,44.845-.675s3.374.975,3.3-1.724c0,0,6.825-6.45,41.4,1.05L465.233,638.42l-36.282,1.949-42.071-1.125Z" transform="translate(-302.14 -482.237)"/>
    <path id="Path_137" data-name="Path 137" class="cls-11" d="M391.59,640.457l1.574,9.524s38.558-1.125,44.62-.075l-4.581-8.7S409.889,639.032,391.59,640.457Z" transform="translate(-305.588 -483.374)"/>
    <path id="Path_138" data-name="Path 138" class="cls-7" d="M391.59,640.457l1.574,9.524s38.558-1.125,44.62-.075l-4.581-8.7S409.889,639.032,391.59,640.457Z" transform="translate(-305.588 -483.374)"/>
    <path id="Path_139" data-name="Path 139" class="cls-11" d="M393.74,640.419l1.553,8.858s38.068-1.044,44.066-.07l-4.517-8.089S411.809,639.094,393.74,640.419Z" transform="translate(-307.163 -483.372)"/>
    <path id="Path_140" data-name="Path 140" class="cls-7" d="M396.35,641.505l1.513,8.285s37.233-.977,43.11-.064l-4.418-7.57S414.025,640.255,396.35,641.505Z" transform="translate(-309.074 -484.184)"/>
    <path id="Path_141" data-name="Path 141" class="cls-11" d="M397.47,640.391l1.521,8.3s37.233-.977,43.11-.064l-4.429-7.578S415.145,639.151,397.47,640.391Z" transform="translate(-309.894 -483.373)"/>
    <path id="Path_142" data-name="Path 142" class="cls-10" d="M284.437,557.41s1.949,2.546-.9,6.394-5.2,7.093-4.247,9.492c0,0,4.284-7.144,7.792-7.23S288.285,561.7,284.437,557.41Z" transform="translate(-223.204 -422.919)"/>
    <path id="Path_143" data-name="Path 143" class="cls-7" d="M284.738,557.41a3.094,3.094,0,0,1,.4.8c3.411,4.017,5.229,7.765,1.949,7.846-3.055.086-6.718,5.548-7.6,6.93q.046.155.1.313s4.284-7.144,7.792-7.23S288.586,561.7,284.738,557.41Z" transform="translate(-223.505 -422.919)"/>
    <path id="Path_144" data-name="Path 144" class="cls-12" d="M311.39,567.968c0,.894-.1,1.623-.225,1.623s-.225-.728-.225-1.623.126-.477.249-.477S311.39,567.07,311.39,567.968Z" transform="translate(-246.534 -430.228)"/>
    <path id="Path_145" data-name="Path 145" class="cls-12" d="M313.061,571.841c-.787.431-1.473.691-1.532.581s.536-.536,1.317-.975.477-.118.535,0S313.848,571.412,313.061,571.841Z" transform="translate(-246.962 -433.033)"/>
    <path id="Path_146" data-name="Path 146" class="cls-10" d="M248.7,557.41s-1.949,2.546.9,6.394,5.195,7.093,4.247,9.492c0,0-4.3-7.144-7.795-7.23S244.854,561.7,248.7,557.41Z" transform="translate(-197.759 -422.919)"/>
    <path id="Path_147" data-name="Path 147" class="cls-7" d="M248.7,557.41a3.212,3.212,0,0,0-.4.8c-3.411,4.017-5.229,7.765-1.949,7.846,3.055.086,6.721,5.548,7.6,6.93a3.215,3.215,0,0,1-.1.313s-4.3-7.144-7.795-7.23S244.854,561.7,248.7,557.41Z" transform="translate(-197.759 -422.919)"/>
    <path id="Path_148" data-name="Path 148" class="cls-12" d="M247.13,567.968c0,.894.1,1.623.225,1.623s.225-.728.225-1.623-.126-.477-.249-.477S247.13,567.07,247.13,567.968Z" transform="translate(-199.81 -430.228)"/>
    <path id="Path_149" data-name="Path 149" class="cls-12" d="M241.184,571.841c.787.431,1.475.691,1.534.581s-.536-.536-1.317-.975-.477-.118-.536,0S240.4,571.412,241.184,571.841Z" transform="translate(-195.106 -433.033)"/>
    <path id="Path_150" data-name="Path 150" class="cls-3" d="M261.669,600.659l-.1.8-.137,1.122-.056.469-.137,1.125-.059.469-.139,1.125-1.558,12.778c-.139,1.141-2,2.03-4.252,2.03h-8.092c-2.249,0-4.11-.889-4.249-2.03l-1.561-12.778-.137-1.125-.056-.469L241,603.053l-.056-.469-.137-1.122-.1-.8c-.078-.645.929-1.189,2.2-1.189h16.564C260.748,599.47,261.757,600.014,261.669,600.659Z" transform="translate(-195.105 -453.716)"/>
    <path id="Path_151" data-name="Path 151" class="cls-13" d="M191.423,551.59l-.137,1.125h-20.5l-.137-1.125Z" transform="translate(-124.947 -403.852)"/>
    <path id="Path_152" data-name="Path 152" class="cls-13" d="M191.758,557.54l-.137,1.125H171.509l-.139-1.125Z" transform="translate(-125.474 -408.209)"/>
    <path id="Path_153" data-name="Path 153" class="cls-13" d="M192.1,563.49l-.137,1.122H172.237l-.137-1.122Z" transform="translate(-126.009 -412.566)"/>
    <path id="Path_154" data-name="Path 154" class="cls-5" d="M397.6,595.028s-5.2-5-5,1.5S397.6,595.028,397.6,595.028Z" transform="translate(-306.327 -449.12)"/>
    <path id="Path_155" data-name="Path 155" class="cls-5" d="M430.237,503.4a7.586,7.586,0,0,1-1.548,2.386c-4.509,5.43-17.338,16.717-19.852,18.811-3,2.5-9.7,1.607-9.7,1.607l-12.4.2s-12.3-.5-13.3-14.995,14.4,4.4,14.4,4.4a30.064,30.064,0,0,0,5.1.6c1.8-.2,5.6-2.3,5.6-2.3s2.6-1.9,5-3.5,11.4-12.2,13-15.9c1.015-2.348,4.284-6.188,6.541-8.678,1.3-1.433,2.257-2.41,2.257-2.41S430.936,500.3,430.237,503.4Z" transform="translate(-292.265 -368.887)"/>
    <path id="Path_156" data-name="Path 156" class="cls-7" d="M566.107,503.368a7.584,7.584,0,0,1-1.548,2.386c-4.552-4.635-5.5-13.884-5.61-19.764,1.3-1.433,2.257-2.41,2.257-2.41S566.806,500.267,566.107,503.368Z" transform="translate(-428.135 -368.858)"/>
    <path id="Path_157" data-name="Path 157" class="cls-7" d="M681.729,469.975h0l-4.324,5.039-5.652.343-9.048.557s-12.2-14.7-9.907-17.9a5.857,5.857,0,0,0,.8-4.116c-.021-.2-.051-.4-.086-.592a17.1,17.1,0,0,0-1.424-4.391l.3-.137.193-.088a19.2,19.2,0,0,1,.98,4.1c.029.19.056.388.083.592.094.723.179,1.526.268,2.41.7,8.092,5.786,11.136,8.084,12.106a23.305,23.305,0,0,1,2.164,1.047,11.543,11.543,0,0,0,7.256,1.312c5.671-.744,10.3-4.865,10.3-4.865l.024,4.057Z" transform="translate(-496.336 -343.31)"/>
    <path id="Path_158" data-name="Path 158" class="cls-6" d="M615.128,497.947s-37.2-.1-42.1-3.5-2-7.9-2.1-9-2.2-3.9-2.9-4.7.6-1.8.4-4-1.9,0-1.9,0c-7-7.1-5.5-25.1-5.5-25.1s6.694-1.7,9.907-3c.87-.353,2.225-.857,3.749-1.4l.565-.2c3.928-1.406,8.6-2.994,8.6-2.994s.9-.635,1.8,1.264a16.692,16.692,0,0,1,1.159,4.525c.029.19.056.388.083.592.094.723.179,1.526.268,2.41.7,8.092,5.786,11.136,8.084,12.106a23.313,23.313,0,0,1,2.164,1.047,11.543,11.543,0,0,0,7.256,1.312c5.671-.744,10.3-4.865,10.3-4.865l.024,4.057.07,12.189Z" transform="translate(-429.561 -339.839)"/>
    <path id="Path_159" data-name="Path 159" class="cls-5" d="M646.672,582.841l-.6,3.8s-14.8,3.7-20.6,4.8-18.3-.3-19.2,2.1,3.8,5.7,3.8,5.7l14.995-.2,28.3,2.2s10.8-9.5,7.3-16.1S646.672,582.841,646.672,582.841Z" transform="translate(-462.706 -440.531)"/>
    <path id="Path_160" data-name="Path 160" class="cls-7" d="M628.067,474.58s-6.8,5.6-5.5,8.3S628.067,474.58,628.067,474.58Z" transform="translate(-474.597 -362.268)"/>
    <path id="Path_161" data-name="Path 161" class="cls-7" d="M594.372,512.29s-6.9,11.9-6.5,12.8,2.3,4.1,2.2,1.7S594.372,512.29,594.372,512.29Z" transform="translate(-449.302 -389.88)"/>
    <path id="Path_162" data-name="Path 162" class="cls-7" d="M613.013,520.14s-1.607,7.4-3.2,10.5S613.013,520.14,613.013,520.14Z" transform="translate(-465.141 -395.628)"/>
    <path id="Path_163" data-name="Path 163" class="cls-7" d="M637.672,428.423a17.3,17.3,0,0,1-13.147,8.9h-.032a17.268,17.268,0,0,1-12.173-3.186c4.017-1.451,9.163-3.2,9.163-3.2s.9-.635,1.8,1.264l13.5-6.159A7.16,7.16,0,0,0,637.672,428.423Z" transform="translate(-467.215 -326.725)"/>
    <path id="Path_164" data-name="Path 164" class="cls-5" d="M620.275,354.487A17.219,17.219,0,0,1,618,363.071a17.421,17.421,0,0,1-2.579,3.433,17.225,17.225,0,0,1-10.486,5.184H604.9a16.885,16.885,0,0,1-1.923.11,17.3,17.3,0,0,1-17.188-15.349,16.775,16.775,0,0,1-.11-1.952,17.3,17.3,0,1,1,34.6,0Z" transform="translate(-447.708 -261.673)"/>
    <path id="Path_165" data-name="Path 165" class="cls-7" d="M753.459,500.908l1.607-2.41s8.8-10.5,17.4-3.8l-.3,9.2a24.394,24.394,0,0,1-1,4.284,2.926,2.926,0,0,0,.3,2.7s.5,2.41-.2,2.41-1.9,3.6-1.9,3.6-1.7,3.7-.7,5.4,3.2,7.4,3.2,7.4-3.5-2.1-4.5-5.6c0,0-8.5-6.6-15.1-2.41Z" transform="translate(-569.691 -375.363)"/>
    <path id="Path_166" data-name="Path 166" class="cls-7" d="M781.019,490.355a17.593,17.593,0,0,1-.675,5.221l-15.1,2.3-.565-3.92C766.656,491.895,773.843,485.34,781.019,490.355Z" transform="translate(-578.778 -372.465)"/>
    <path id="Path_167" data-name="Path 167" class="cls-6" d="M753.459,498.908l1.607-2.41s8.8-10.5,17.4-3.8l-.3,9.2a24.4,24.4,0,0,1-1,4.284,2.926,2.926,0,0,0,.3,2.7s.5,2.41-.2,2.41-1.9,3.6-1.9,3.6-1.7,3.7-.7,5.4,3.2,7.4,3.2,7.4-3.5-2.1-4.5-5.6c0,0-8.5-6.6-15.1-2.41Z" transform="translate(-569.691 -373.899)"/>
    <path id="Path_168" data-name="Path 168" class="cls-7" d="M771.931,496.61s-14.5,8.9-13.8,16.706C758.133,513.316,766.233,499.009,771.931,496.61Z" transform="translate(-573.966 -378.399)"/>
    <path id="Path_169" data-name="Path 169" class="cls-7" d="M633.018,388.316l.07,12.189c-2.742.123-5.326-.233-7.369-2.008a8.843,8.843,0,0,1-2.678-4.793,16.978,16.978,0,0,1-.348-4.533.236.236,0,0,1,0-.046c.169-3.366.943-6.732.535-10.076s-2.434-6.874-5.743-7.578a3.468,3.468,0,0,1-1.853-.672,2.688,2.688,0,0,1-.434-2.11l.1-1.251c.024-.321.035-.64.035-.959a12.272,12.272,0,0,0-9.907-12.033l-.107-.019a6.767,6.767,0,0,0-2.833-.158c-1.773.41-2.919,2.129-4.552,2.945-3.133,1.564-8.357-.147-11.637-.685-.214-.035-.418-.075-.613-.12a16.8,16.8,0,0,1-.11-1.952,17.3,17.3,0,1,1,32.319,8.585c.051.1.107.2.166.3,3.639,6.025,15.308,2.214,15.308,2.214l.7,21.5Z" transform="translate(-447.627 -261.648)"/>
    <path id="Path_170" data-name="Path 170" class="cls-14" d="M586.326,323.046c1.623-.819,2.769-2.538,4.552-2.945a6.831,6.831,0,0,1,2.836.155l.107.021a12.282,12.282,0,0,1,9.862,12.995l-.1,1.25a2.648,2.648,0,0,0,.437,2.107,3.385,3.385,0,0,0,1.85.669c3.31.707,5.337,4.217,5.744,7.58s-.38,6.74-.536,10.119.466,7.109,3.02,9.329c4.017,3.481,10.122,1.5,15.437,1.181-2.351,0-4.113-2.426-4.241-4.772s.916-4.579,1.914-6.694,2-4.391,1.778-6.732c-.305-3.213-2.838-5.786-3.807-8.879-1.13-3.6-.04-7.463.471-11.2.961-7-.536-14.89-5.958-19.418-2.271-1.893-5.047-3.058-7.543-4.643-4.472-2.836-8-6.994-12.518-9.752s-10.866-3.781-14.81-.246c-1.526,1.368-2.512,3.267-4.081,4.587-3.066,2.584-7.939,2.632-10.4,5.8-2.115,2.729-1.542,6.6-.865,9.99.9,4.517.394,8.033,5.221,8.836C577.969,322.9,583.19,324.613,586.326,323.046Z" transform="translate(-435.394 -227.777)"/>
    <path id="Path_171" data-name="Path 171" class="cls-7" d="M626.01,396.7c-3.869.474-7.7.718-10.52-1.724-2.555-2.22-3.184-5.947-3.02-9.329s.945-6.761.536-10.121-2.434-6.871-5.743-7.578a3.435,3.435,0,0,1-1.85-.669,2.67,2.67,0,0,1-.436-2.11l.1-1.25a12.28,12.28,0,0,0-9.862-12.992l-.107-.021a6.829,6.829,0,0,0-2.836-.155c-1.773.41-2.919,2.142-4.552,2.945-3.136,1.566-8.354-.145-11.64-.683-4.82-.79-4.316-4.311-5.221-8.836-.506-2.528-.953-5.328-.268-7.722a4.21,4.21,0,0,0-.369.431c-2.115,2.729-1.542,6.6-.865,9.99.9,4.517.394,8.033,5.221,8.836,3.283.536,8.5,2.249,11.64.683,1.623-.819,2.769-2.538,4.552-2.945a6.831,6.831,0,0,1,2.836.155l.107.021a12.282,12.282,0,0,1,9.862,12.995l-.1,1.25a2.648,2.648,0,0,0,.436,2.107,3.384,3.384,0,0,0,1.85.669c3.31.707,5.337,4.217,5.744,7.58s-.378,6.74-.536,10.119.466,7.109,3.02,9.329c4.016,3.481,10.121,1.5,15.437,1.181A4.072,4.072,0,0,1,626.01,396.7Z" transform="translate(-435.299 -261.124)"/>
    <path id="Path_172" data-name="Path 172" class="cls-15" d="M370.129,577.7l16.508-6.159a1.572,1.572,0,0,1,2.022.921h0a1.572,1.572,0,0,1-.921,2.022l-16.508,6.159-3.54-.353Z" transform="translate(-288.088 -433.19)"/>
    <path id="Path_173" data-name="Path 173" class="cls-16" d="M388.131,572.63h0a1.572,1.572,0,0,1-.924,2.022l-16.518,6.18-2.656-.268-.383.407,3.54.353,16.508-6.159a1.572,1.572,0,0,0,.921-2.022h0a1.572,1.572,0,0,0-.643-.785A1.819,1.819,0,0,1,388.131,572.63Z" transform="translate(-288.059 -433.866)"/>
    <path id="Path_174" data-name="Path 174" class="cls-17" d="M299.7,539.52l1.1,2.943-2.9-.292-.635-.064.868-.921Z" transform="translate(-217.655 -395.014)"/>
    <path id="Path_175" data-name="Path 175" class="cls-18" d="M368.58,601a.7.7,0,0,1,.171.185.268.268,0,0,1,0,.286.57.57,0,0,1-.158.115.536.536,0,0,0-.236.4l-.637-.062Z" transform="translate(-288.11 -454.837)"/>
    <path id="Path_176" data-name="Path 176" class="cls-11" d="M569.535,638.764s14.3-3,38.29.8l-9.4-6.9-17.1-3.5-12.1,3.213Z" transform="translate(-435.663 -475.464)"/>
    <path id="Path_177" data-name="Path 177" class="cls-7" d="M569.535,638.764s14.3-3,38.29.8l-9.4-6.9-17.1-3.5-12.1,3.213Z" transform="translate(-435.663 -475.464)"/>
    <path id="Path_178" data-name="Path 178" class="cls-11" d="M551.633,644.26s7.2-19.477,44.181.062l-13.273-8.542s-31.8-8.785-35.471,1.339Z" transform="translate(-419.436 -477.714)"/>
    <path id="Path_179" data-name="Path 179" class="cls-7" d="M551.581,640.378s7.2-20.824,44.181.375l-13.273-9.265s-31.808-10.507-35.49.49Z" transform="translate(-419.385 -473.845)"/>
    <path id="Path_180" data-name="Path 180" class="cls-11" d="M551.633,640.168s7.2-21.132,44.181.067l-13.273-9.265s-31.8-10.207-35.471.8Z" transform="translate(-419.436 -473.628)"/>
    <path id="Path_181" data-name="Path 181" class="cls-7" d="M551.6,637.825s7.2-23.486,44.181.361L582.5,627.763s-31.8-10.711-35.471,1.649Z" transform="translate(-419.407 -471.28)"/>
    <path id="Path_182" data-name="Path 182" class="cls-11" d="M551.6,636.992s7.2-23.772,44.181.075L582.5,626.643s-31.8-10.711-35.471,1.649Z" transform="translate(-419.407 -470.46)"/>
    <path id="Path_183" data-name="Path 183" class="cls-2" d="M966.906,668.71s-8.876,9.508-.886,14.127a2.216,2.216,0,0,0,2.536.6s-.5-.447.506-1.309a5.988,5.988,0,0,0,.951-1.044,2.945,2.945,0,0,0,.552-1.783h0s1.162-3.773-2.53-8.67c0,0-.335-1.639-.618-1.818l-.675,2.284a3.934,3.934,0,0,1,2.332,1.722s-2.233-1.754-2.45-1.387c-.043.075-.3,1.229-.3,1.229s2.945.76,3.867,2.785c0,0-2.38-2.445-3.968-2.348l-.289,1.762s3.152.653,4.284,2.919c0,0-2.576-2.471-4.327-2.528l-.051,1.77s3.061.7,3.995,2.587c0,0-3.264-2.552-3.979-2.18a8.75,8.75,0,0,0,.268,2.057s2.185.535,2.629,1.7c0,0-2.362-1.475-2.565-1.251a9.212,9.212,0,0,0,1.518,3,6.662,6.662,0,0,1-1.842-2.886,3.674,3.674,0,0,0-.444,2.054s-.876-.969.3-2.565a8.461,8.461,0,0,1-.321-1.923,8,8,0,0,0-1.732,2.678s-.268-1.585,1.73-3.136v-1.783a11.372,11.372,0,0,0-2.319,2.865s-.027-1.66,2.359-3.312l.268-1.732a13.554,13.554,0,0,0-2.477,2.522,5.387,5.387,0,0,1,2.57-3.015l.313-1.135s-1.275,1.044-1.607,1.376-.458.268-.458.268a5.622,5.622,0,0,1,2.2-2.126A12.8,12.8,0,0,0,966.906,668.71Z" transform="translate(-723.764 -504.416)"/>
    <path id="Path_184" data-name="Path 184" class="cls-2" d="M1105.4,90.91s-11.859,5.355-6.268,12.689a2.219,2.219,0,0,0,2.107,1.534s-.292-.608.972-1.015a5.867,5.867,0,0,0,1.28-.6,2.946,2.946,0,0,0,1.2-1.433h0s2.528-3.031,1.009-8.973c0,0,.324-1.641.131-1.917l-1.5,1.848a3.93,3.93,0,0,1,1.489,2.488s-1.382-2.479-1.724-2.222c-.07.051-.752,1.015-.752,1.015s2.41,1.837,2.493,4.062c0,0-1.253-3.176-2.758-3.7l-.945,1.516s2.656,1.818,2.833,4.346c0,0-1.425-3.272-3.018-4l-.731,1.607s2.557,1.823,2.677,3.928c0,0-2.027-3.615-2.83-3.545a8.321,8.321,0,0,0-.536,2s1.8,1.339,1.773,2.581c0,0-1.607-2.271-1.874-2.142a9.173,9.173,0,0,0,.244,3.355,6.647,6.647,0,0,1-.586-3.374,3.666,3.666,0,0,0-1.2,1.724s-.434-1.234,1.264-2.255a8.4,8.4,0,0,1,.444-1.9,8,8,0,0,0-2.627,1.791s.362-1.566,2.806-2.225l.7-1.639a11.382,11.382,0,0,0-3.245,1.746s.616-1.542,3.454-2.142l.913-1.494a13.677,13.677,0,0,0-3.259,1.371,5.412,5.412,0,0,1,3.537-1.789l.726-.926s-1.58.471-2.022.648-.536.072-.536.072a5.622,5.622,0,0,1,2.862-1.114A14.065,14.065,0,0,0,1105.4,90.91Z" transform="translate(-822.58 -81.331)"/>
    <path id="Path_185" data-name="Path 185" class="cls-2" d="M674.74,103.29s-17.817,5.088-9.155,12.66a3.436,3.436,0,0,0,3.235,1.607s-.461-.621,1.446-1a11.325,11.325,0,0,0,1.922-.568,3.43,3.43,0,0,0,1.773-1.416h0s3.749-3,1.288-9.045c0,0,.447-1.649.147-1.933l-2.228,1.826s2.142,1.1,2.322,2.554c0,0-2.161-2.541-2.678-2.292-.1.051-1.114,1-1.114,1s3.717,1.923,3.885,4.174c0,0-1.981-3.243-4.284-3.813l-1.392,1.5s4.07,1.909,4.4,4.469c0,0-2.244-3.344-4.675-4.124l-1.071,1.607s3.92,1.912,4.177,4.043c0,0-3.168-3.709-4.383-3.663a6.276,6.276,0,0,0-.763,2.011s2.769,1.414,2.755,2.656c0,0-2.5-2.34-2.913-2.217a6.381,6.381,0,0,0,.461,3.4,5.089,5.089,0,0,1-.98-3.425,4.026,4.026,0,0,0-1.773,1.708s-.691-1.256,1.853-2.241c0,0,.324-1.708.621-1.906a13.1,13.1,0,0,0-3.928,1.74s.5-1.574,4.188-2.174l1.012-1.639s-3.7.835-4.868,1.679c0,0,.892-1.542,5.176-2.078l1.339-1.486a26.347,26.347,0,0,0-4.9,1.3s1.3-1.3,5.307-1.714l1.071-.916s-2.38.434-3.044.6-.8.059-.8.059a10.547,10.547,0,0,1,4.284-1.05S674.895,103.4,674.74,103.29Z" transform="translate(-504.478 -90.396)"/>
    <path id="Path_186" data-name="Path 186" class="cls-2" d="M892.352,803.889s8.97-9.423,1.026-14.119a2.22,2.22,0,0,0-2.53-.627s.5.453-.517,1.307a6.044,6.044,0,0,0-.961,1.034,2.927,2.927,0,0,0-.568,1.778h0s-1.2,3.762,2.445,8.694c0,0,.319,1.641.6,1.826l.7-2.279a3.932,3.932,0,0,1-2.316-1.743s2.214,1.773,2.434,1.409c.045-.075.316-1.224.316-1.224s-2.945-.8-3.84-2.822c0,0,2.356,2.469,3.947,2.386l.305-1.759s-3.143-.683-4.26-2.945c0,0,2.552,2.5,4.3,2.571l.067-1.773s-3.055-.739-3.982-2.64c0,0,3.24,2.587,3.958,2.22a7.975,7.975,0,0,0-.268-2.056s-2.18-.573-2.613-1.724c0,0,2.348,1.5,2.552,1.275a9.186,9.186,0,0,0-1.489-3.015,6.659,6.659,0,0,1,1.815,2.9,3.66,3.66,0,0,0,.463-2.048s.868.98-.321,2.563a8.465,8.465,0,0,1,.3,1.925,8.022,8.022,0,0,0,1.757-2.648s.268,1.588-1.759,3.117l-.027,1.783a11.366,11.366,0,0,0,2.346-2.844s0,1.663-2.391,3.291l-.268,1.73a13.59,13.59,0,0,0,2.5-2.5,5.4,5.4,0,0,1-2.6,2.988l-.324,1.133s1.285-1.031,1.628-1.36.461-.268.461-.268a5.6,5.6,0,0,1-2.217,2.1A13.724,13.724,0,0,0,892.352,803.889Z" transform="translate(-669.525 -592.469)"/>
    <path id="Path_187" data-name="Path 187" class="cls-2" d="M575.85,55.664s1.529,12.917,10.215,9.8a2.221,2.221,0,0,0,2.1-1.55s-.669.1-.675-1.232a6,6,0,0,0-.185-1.4,2.925,2.925,0,0,0-1-1.572h0s-2.131-3.326-8.266-3.652c0,0-1.467-.8-1.789-.7l1.309,1.989a3.921,3.921,0,0,1,2.82-.669s-2.779.573-2.638.975c.027.083.739,1.023.739,1.023s2.5-1.767,4.646-1.165c0,0-3.4.236-4.357,1.513l1.143,1.36s2.533-1.987,5-1.4c0,0-3.551.375-4.726,1.674l1.333,1.184s2.506-1.89,4.552-1.382c0,0-4.059.846-4.236,1.631a8.564,8.564,0,0,0,1.749,1.119s1.831-1.315,2.994-.913c0,0-2.651.851-2.611,1.151a9.2,9.2,0,0,0,3.272.777,6.8,6.8,0,0,1-3.393-.455,3.672,3.672,0,0,0,1.283,1.665s-1.307.04-1.77-1.874a8.533,8.533,0,0,1-1.674-.993,8.015,8.015,0,0,0,.918,3.042s-1.387-.8-1.28-3.344l-1.339-1.159a11.428,11.428,0,0,0,.688,3.623s-1.285-1.052-1.007-3.941l-1.149-1.32a13.6,13.6,0,0,0,.324,3.518s-.983-1.232-.64-3.909l-.667-.972s-.024,1.647,0,2.123-.091.522-.091.522a5.623,5.623,0,0,1-.209-3.061A13.673,13.673,0,0,0,575.85,55.664Z" transform="translate(-440.51 -55.29)"/>
    <path id="Path_188" data-name="Path 188" class="cls-2" d="M782.5,733.538s-12.537-3.481-12.938,5.741a2.222,2.222,0,0,0,.64,2.528s.163-.653,1.4-.158a6,6,0,0,0,1.366.362,2.927,2.927,0,0,0,1.837-.337h0s3.883-.712,6.517-6.25c0,0,1.3-1.052,1.339-1.39l-2.338.458a3.931,3.931,0,0,1-.45,2.865s.535-2.79.1-2.812c-.088,0-1.229.3-1.229.3s.686,2.962-.683,4.715c0,0,1.071-3.24.249-4.605l-1.7.56s.878,3.1-.605,5.152c0,0,1-3.425.241-5l-1.591.774s.8,3.036-.447,4.739c0,0,.755-4.075.094-4.539a8.714,8.714,0,0,0-1.7,1.194s.536,2.193-.289,3.117c0,0,.214-2.777-.078-2.852a9.167,9.167,0,0,0-1.96,2.734,6.658,6.658,0,0,1,1.708-2.967,3.678,3.678,0,0,0-2.027.554s.455-1.224,2.41-.921a8.393,8.393,0,0,1,1.556-1.173,7.959,7.959,0,0,0-3.165-.305s1.28-.975,3.58.086l1.585-.8a11.42,11.42,0,0,0-3.612-.734s1.459-.8,4.016.56l1.655-.565a13.624,13.624,0,0,0-3.379-1.031,5.4,5.4,0,0,1,3.861.889l1.151-.249s-1.516-.648-1.968-.8-.45-.268-.45-.268a5.622,5.622,0,0,1,2.9.964A13.861,13.861,0,0,0,782.5,733.538Z" transform="translate(-582.237 -551.415)"/>
  </g>
</svg>
